<?xml version="1.0" standalone="no"?><svg xmlns="http://www.w3.org/2000/svg" viewBox="0 0 1440 320"><path fill="#FFFF" fill-opacity="1" d="M0,128L34.3,133.3C68.6,139,137,149,206,170.7C274.3,192,343,224,411,213.3C480,203,549,149,617,149.3C685.7,149,754,203,823,234.7C891.4,267,960,277,1029,234.7C1097.1,192,1166,96,1234,69.3C1302.9,43,1371,85,1406,106.7L1440,128L1440,320L1405.7,320C1371.4,320,1303,320,1234,320C1165.7,320,1097,320,1029,320C960,320,891,320,823,320C754.3,320,686,320,617,320C548.6,320,480,320,411,320C342.9,320,274,320,206,320C137.1,320,69,320,34,320L0,320Z"></path></svg>